<?xml version="1.0" encoding="utf-8"?>
<!-- Generator: Adobe Illustrator 24.1.0, SVG Export Plug-In . SVG Version: 6.00 Build 0)  -->
<svg version="1.1" id="Layer_1" xmlns="http://www.w3.org/2000/svg" xmlns:xlink="http://www.w3.org/1999/xlink" x="0px" y="0px"
	 viewBox="0 0 61.575798 26.7296162" style="enable-background:new 0 0 61.575798 26.7296162;" xml:space="preserve">
<style type="text/css">
	.st0{fill:#3783BA;}
	.st1{fill:#010101;}
	.st2{clip-path:url(#SVGID_2_);fill:#231F20;}
	.st3{clip-path:url(#SVGID_4_);fill:url(#SVGID_5_);}
	.st4{clip-path:url(#SVGID_7_);fill:url(#SVGID_8_);}
	.st5{clip-path:url(#SVGID_10_);fill:url(#SVGID_11_);}
	.st6{clip-path:url(#SVGID_13_);fill:url(#SVGID_14_);}
</style>
<g>
	<g>
		<path class="st0" d="M47.4365997,0.5621948h8.9169998v3.5780029h-6.5670013V5.314209c0,0,8.276001,0.9620361,8.3829956,9.8259888
			c0.1070023,8.8640137-6.7819977,11.2130127-11.7480011,11.3200073h-0.8089981
			c-0.2309952,0-0.4189987-0.1869507-0.4189987-0.4179688v-2.4000244c0-0.2420044,0.1159973-0.4699707,0.3130035-0.6129761
			l0.2749939-0.2000122c0,0,9.0790024-0.4810181,8.864006-7.2089844c-0.2140045-6.6749878-9.0780029-6.9420166-9.0780029-6.9420166
			L47.4365997,0.5621948z"/>
		<path class="st0" d="M36.3209,5.8695679c0,0,1.7060013-1.4949951,3.2259979-2.5709839
			c0.0820007-0.5620117-1.7689972-2.9290161-1.7689972-2.9290161c-6.0879974,2.4380493-11.4629974,9.2730103-11.4280014,15.8590088
			c0.0360031,6.5859985,4.9489975,10.5040283,9.6480026,10.5010376c3.776001-0.0020142,9.7539978-2.1350098,9.7539978-10.5010376
			C45.7518997,6.0476074,36.3209,5.8695679,36.3209,5.8695679 M36.0509033,22.7785645
			c-3.2070007,0-5.8070068-2.940979-5.8070068-6.5679932c0-3.6269531,2.6000061-6.5679932,5.8070068-6.5679932
			c3.2069931,0,5.8069992,2.94104,5.8069992,6.5679932C41.8579025,19.8375854,39.2578964,22.7785645,36.0509033,22.7785645"/>
		<path class="st0" d="M12.0042038,3.1074829l2.1569977,2.7260132c0,0,4.5709991-3.8649902,7.2409973,0.1220093
			s-1.3170013,7.6450195-1.3170013,7.6450195l-9.2559967,11.7210083v1.1389771h14.7740021v-3.2750244H17.735199
			c0,0,6.5589981-8.526001,7.2420044-9.8169556c0.6829987-1.2900391,2.6899948-6.559021-1.5810013-10.5809937
			c-2.6699982-3.0620117-7.4760056-2.2790527-8.5090027-1.7449951C13.8552017,1.5765381,12.0042038,3.1074829,12.0042038,3.1074829"
			/>
		<polygon class="st0" points="10.3310013,26.4602051 7.579998,26.4602051 5.1559982,22.9962158 2.730999,26.4602051 0,26.4602051 
			3.7900009,21.0402222 0,15.6202393 2.730999,15.6202393 5.1559982,19.0842285 7.579998,15.6202393 10.3310013,15.6202393 
			6.5209999,21.0402222 		"/>
		<path class="st1" d="M47.4365997,0.5621948h8.9169998v3.5780029h-6.5670013V5.314209c0,0,8.276001,0.9620361,8.3829956,9.8259888
			c0.1070023,8.8640137-6.7819977,11.2130127-11.7480011,11.3200073h-0.8089981
			c-0.2309952,0-0.4189987-0.1869507-0.4189987-0.4179688v-2.4000244c0-0.2420044,0.1159973-0.4699707,0.3130035-0.6129761
			l0.2749939-0.2000122c0,0,9.0790024-0.4810181,8.864006-7.2089844c-0.2140045-6.6749878-9.0780029-6.9420166-9.0780029-6.9420166
			L47.4365997,0.5621948z"/>
		<path class="st1" d="M36.3209,5.8695679c0,0,1.7060013-1.4949951,3.2259979-2.5709839
			c0.0820007-0.5620117-1.7689972-2.9290161-1.7689972-2.9290161c-6.0879974,2.4380493-11.4629974,9.2730103-11.4280014,15.8590088
			c0.0360031,6.5859985,4.9489975,10.5040283,9.6480026,10.5010376c3.776001-0.0020142,9.7539978-2.1350098,9.7539978-10.5010376
			C45.7518997,6.0476074,36.3209,5.8695679,36.3209,5.8695679 M36.0509033,22.7785645
			c-3.2070007,0-5.8070068-2.940979-5.8070068-6.5679932c0-3.6269531,2.6000061-6.5679932,5.8070068-6.5679932
			c3.2069931,0,5.8069992,2.94104,5.8069992,6.5679932C41.8579025,19.8375854,39.2578964,22.7785645,36.0509033,22.7785645"/>
		<path class="st1" d="M12.0042038,3.1074829l2.1569977,2.7260132c0,0,4.5709991-3.8649902,7.2409973,0.1220093
			s-1.3170013,7.6450195-1.3170013,7.6450195l-9.2559967,11.7210083v1.1389771h14.7740021v-3.2750244H17.735199
			c0,0,6.5589981-8.526001,7.2420044-9.8169556c0.6829987-1.2900391,2.6899948-6.559021-1.5810013-10.5809937
			c-2.6699982-3.0620117-7.4760056-2.2790527-8.5090027-1.7449951C13.8552017,1.5765381,12.0042038,3.1074829,12.0042038,3.1074829"
			/>
		<polygon class="st1" points="10.3310013,26.4602051 7.579998,26.4602051 5.1559982,22.9962158 2.730999,26.4602051 0,26.4602051 
			3.7900009,21.0402222 0,15.6202393 2.730999,15.6202393 5.1559982,19.0842285 7.579998,15.6202393 10.3310013,15.6202393 
			6.5209999,21.0402222 		"/>
		<path class="st0" d="M48.007103,0.1928101h8.9169998V3.770813h-6.5670013v1.1740112c0,0,8.276001,0.9620361,8.3829956,9.8259888
			c0.1070023,8.8640137-6.7819977,11.2130127-11.7480011,11.3200073h-0.8089981
			c-0.2309952,0-0.4189987-0.1869507-0.4189987-0.4179688v-2.4000244c0-0.2420044,0.1159973-0.4699707,0.3130035-0.6129761
			l0.2749939-0.2000122c0,0,9.0790024-0.4810181,8.864006-7.2089844c-0.2140045-6.6749878-9.0780029-6.9420166-9.0780029-6.9420166
			L48.007103,0.1928101z"/>
		<path class="st0" d="M36.8914948,5.5001831c0,0,1.7060013-1.4949951,3.2259979-2.5709839
			c0.0820007-0.5620117-1.7689972-2.9290161-1.7689972-2.9290161C32.260498,2.4382324,26.885498,9.2731934,26.9204941,15.8591919
			c0.0360031,6.5859985,4.9489975,10.5040283,9.6480026,10.5010376c3.776001-0.0020142,9.7539978-2.1350098,9.7539978-10.5010376
			C46.3224945,5.6782227,36.8914948,5.5001831,36.8914948,5.5001831 M36.6214981,22.4091797
			c-3.2070007,0-5.8070068-2.940979-5.8070068-6.5679932c0-3.6269531,2.6000061-6.5679932,5.8070068-6.5679932
			c3.2069931,0,5.8069992,2.94104,5.8069992,6.5679932C42.4284973,19.4682007,39.8284912,22.4091797,36.6214981,22.4091797"/>
		<path class="st0" d="M12.5746994,2.7379761l2.1569977,2.7260132c0,0,4.5709991-3.8649902,7.2409973,0.1220093
			s-1.3170013,7.6450195-1.3170013,7.6450195l-9.2559967,11.7210083v1.1389771h14.7740021V22.815979h-7.8680038
			c0,0,6.5589981-8.526001,7.2420044-9.8169556c0.6829987-1.2900391,2.6899948-6.559021-1.5810013-10.5809937
			c-2.6699982-3.0620117-7.4760056-2.2790527-8.5090027-1.7449951C14.4256973,1.2070313,12.5746994,2.7379761,12.5746994,2.7379761"
			/>
		<polygon class="st0" points="10.9016037,26.0906982 8.1506004,26.0906982 5.7266006,22.626709 3.3016014,26.0906982 
			0.5706024,26.0906982 4.3606033,20.6707153 0.5706024,15.2507324 3.3016014,15.2507324 5.7266006,18.7147217 
			8.1506004,15.2507324 10.9016037,15.2507324 7.0916023,20.6707153 		"/>
		<g>
			<g>
				<defs>
					<rect id="SVGID_1_" x="3.4057007" width="58.1700974" height="26.3610229"/>
				</defs>
				<clipPath id="SVGID_2_">
					<use xlink:href="#SVGID_1_"  style="overflow:visible;"/>
				</clipPath>
				<path class="st2" d="M50.8417969,0.1928101h8.9169998V3.770813h-6.5670013v1.1740112
					c0,0,8.276001,0.9620361,8.3829956,9.8259888c0.1070023,8.8640137-6.7819977,11.2130127-11.7480011,11.3200073h-0.8089981
					c-0.2309952,0-0.4189987-0.1869507-0.4189987-0.4179688v-2.4000244c0-0.2420044,0.1159973-0.4699707,0.3130035-0.6129761
					l0.2749939-0.2000122c0,0,9.0790024-0.4810181,8.864006-7.2089844
					c-0.2140045-6.6749878-9.0780029-6.9420166-9.0780029-6.9420166L50.8417969,0.1928101z"/>
				<path class="st2" d="M39.7260971,5.5001831c0,0,1.7060013-1.4949951,3.2259979-2.5709839
					c0.0820007-0.5620117-1.7689972-2.9290161-1.7689972-2.9290161
					c-6.0879974,2.4380493-11.4629974,9.2730103-11.4280014,15.8590088
					c0.0360031,6.5859985,4.9489975,10.5040283,9.6480026,10.5010376c3.776001-0.0020142,9.7539978-2.1350098,9.7539978-10.5010376
					C49.1570969,5.6782227,39.7260971,5.5001831,39.7260971,5.5001831 M39.4561005,22.4091797
					c-3.2070007,0-5.8070068-2.940979-5.8070068-6.5679932c0-3.6269531,2.6000061-6.5679932,5.8070068-6.5679932
					c3.2069931,0,5.8069992,2.94104,5.8069992,6.5679932C45.2630997,19.4682007,42.6630936,22.4091797,39.4561005,22.4091797"/>
				<path class="st2" d="M15.4094009,2.7379761l2.1569977,2.7260132c0,0,4.5709991-3.8649902,7.2409973,0.1220093
					s-1.3170013,7.6450195-1.3170013,7.6450195l-9.2559967,11.7210083v1.1389771H29.0084V22.815979h-7.8680038
					c0,0,6.5589981-8.526001,7.2420044-9.8169556c0.6829987-1.2900391,2.6899948-6.559021-1.5810013-10.5809937
					c-2.6699982-3.0620117-7.4760056-2.2790527-8.5090027-1.7449951
					C17.2603989,1.2070313,15.4094009,2.7379761,15.4094009,2.7379761"/>
				<polygon class="st2" points="13.7361984,26.0906982 10.9851913,26.0906982 8.5611954,22.626709 6.1361961,26.0906982 
					3.4051971,26.0906982 7.1951981,20.6707153 3.4051971,15.2507324 6.1361961,15.2507324 8.5611954,18.7147217 
					10.9851913,15.2507324 13.7361984,15.2507324 9.9261932,20.6707153 				"/>
			</g>
		</g>
	</g>
	<g>
		<defs>
			<path id="SVGID_3_" d="M48.0067978,0.1929932L46.1388016,8.309021c0,0,8.8639984,0.2669678,9.0769958,6.9419556
				c0.215004,6.7280273-8.8639984,7.2090454-8.8639984,7.2090454l-0.2750015,0.1989746
				c-0.1969986,0.1439819-0.3129959,0.3709717-0.3129959,0.6140137v2.3999634c0,0.2300415,0.1879959,0.4169922,0.4189987,0.4169922
				h0.8099976c4.9660034-0.105957,11.8540039-2.4559937,11.7480011-11.3199463
				c-0.1080017-8.8640137-8.3839951-9.8250122-8.3839951-9.8250122V3.7700195h6.5679932V0.1929932H48.0067978z"/>
		</defs>
		<clipPath id="SVGID_4_">
			<use xlink:href="#SVGID_3_"  style="overflow:visible;"/>
		</clipPath>
		
			<linearGradient id="SVGID_5_" gradientUnits="userSpaceOnUse" x1="-47.9317551" y1="794.7827759" x2="-46.9317551" y2="794.7827759" gradientTransform="matrix(0 -23.1217461 -23.1217461 0 18429.0703125 -1082.8422852)">
			<stop  offset="0" style="stop-color:#33659C"/>
			<stop  offset="0.009698" style="stop-color:#356AA0"/>
			<stop  offset="0.0456404" style="stop-color:#3E7CAE"/>
			<stop  offset="0.0845239" style="stop-color:#448CBA"/>
			<stop  offset="0.1267118" style="stop-color:#499AC5"/>
			<stop  offset="0.1738624" style="stop-color:#4DA4CD"/>
			<stop  offset="0.2299872" style="stop-color:#50AAD1"/>
			<stop  offset="0.318301" style="stop-color:#51ACD3"/>
			<stop  offset="0.4228205" style="stop-color:#69BDE0"/>
			<stop  offset="0.5293065" style="stop-color:#7ACCEB"/>
			<stop  offset="0.60709" style="stop-color:#7FD3F0"/>
			<stop  offset="0.8206056" style="stop-color:#5B9FC9"/>
			<stop  offset="1" style="stop-color:#3C79AC"/>
		</linearGradient>
		<rect x="45.7638016" y="0.1929932" class="st3" width="13.0830002" height="25.8969727"/>
	</g>
	<g>
		<defs>
			<path id="SVGID_6_" d="M30.813797,15.8410034c0-3.6270142,2.6000061-6.5679932,5.8070068-6.5679932
				c3.2080002,0,5.8079987,2.940979,5.8079987,6.5679932c0,3.6279907-2.5999985,6.5679932-5.8079987,6.5679932
				C33.4138031,22.4089966,30.813797,19.4689941,30.813797,15.8410034 M26.9207993,15.8590088
				c0.0360031,6.5849609,4.947998,10.5039673,9.6470032,10.5009766c3.7770004-0.0009766,9.7539978-2.1350098,9.7539978-10.5009766
				C46.3218002,5.6779785,36.8917999,5.5,36.8917999,5.5s1.7060013-1.4960327,3.2259979-2.5700073
				C40.1997986,2.3670044,38.3478012,0,38.3478012,0C32.2608032,2.4379883,26.8858032,9.2730103,26.9207993,15.8590088"/>
		</defs>
		<clipPath id="SVGID_7_">
			<use xlink:href="#SVGID_6_"  style="overflow:visible;"/>
		</clipPath>
		
			<linearGradient id="SVGID_8_" gradientUnits="userSpaceOnUse" x1="-47.9317551" y1="795.461853" x2="-46.9317551" y2="795.461853" gradientTransform="matrix(0 -23.1217461 -23.1217461 0 18429.0703125 -1082.8422852)">
			<stop  offset="0" style="stop-color:#33659C"/>
			<stop  offset="0.009698" style="stop-color:#356AA0"/>
			<stop  offset="0.0456404" style="stop-color:#3E7CAE"/>
			<stop  offset="0.0845239" style="stop-color:#448CBA"/>
			<stop  offset="0.1267118" style="stop-color:#499AC5"/>
			<stop  offset="0.1738624" style="stop-color:#4DA4CD"/>
			<stop  offset="0.2299872" style="stop-color:#50AAD1"/>
			<stop  offset="0.318301" style="stop-color:#51ACD3"/>
			<stop  offset="0.4228205" style="stop-color:#69BDE0"/>
			<stop  offset="0.5293065" style="stop-color:#7ACCEB"/>
			<stop  offset="0.60709" style="stop-color:#7FD3F0"/>
			<stop  offset="0.8206056" style="stop-color:#5B9FC9"/>
			<stop  offset="1" style="stop-color:#3C79AC"/>
		</linearGradient>
		<rect x="26.8857956" y="0.000061" class="st4" width="19.4360046" height="26.362915"/>
	</g>
	<g>
		<defs>
			<path id="SVGID_9_" d="M15.4588013,0.6729736c-1.0329971,0.5339966-2.8840027,2.0650024-2.8840027,2.0650024l2.1559982,2.7260132
				c0,0,4.5720062-3.8649902,7.2420044,0.1220093s-1.3170013,7.6450195-1.3170013,7.6450195l-9.2549973,11.7209473v1.1380005
				h14.772995v-3.2749634h-7.8679962c0,0,6.5579987-8.526001,7.2419968-9.8150024
				c0.6829987-1.2910156,2.6910019-6.559021-1.5820007-10.5820313c-1.5289993-1.7539673-3.7589951-2.2459717-5.5789948-2.2459717
				C17.028801,0.1719971,15.8998032,0.4450073,15.4588013,0.6729736"/>
		</defs>
		<clipPath id="SVGID_10_">
			<use xlink:href="#SVGID_9_"  style="overflow:visible;"/>
		</clipPath>
		
			<linearGradient id="SVGID_11_" gradientUnits="userSpaceOnUse" x1="-47.9317551" y1="796.1877441" x2="-46.9317551" y2="796.1877441" gradientTransform="matrix(0 -23.1217461 -23.1217461 0 18429.0703125 -1082.8422852)">
			<stop  offset="0" style="stop-color:#33659C"/>
			<stop  offset="0.009698" style="stop-color:#356AA0"/>
			<stop  offset="0.0456404" style="stop-color:#3E7CAE"/>
			<stop  offset="0.0845239" style="stop-color:#448CBA"/>
			<stop  offset="0.1267118" style="stop-color:#499AC5"/>
			<stop  offset="0.1738624" style="stop-color:#4DA4CD"/>
			<stop  offset="0.2299872" style="stop-color:#50AAD1"/>
			<stop  offset="0.318301" style="stop-color:#51ACD3"/>
			<stop  offset="0.4228205" style="stop-color:#69BDE0"/>
			<stop  offset="0.5293065" style="stop-color:#7ACCEB"/>
			<stop  offset="0.60709" style="stop-color:#7FD3F0"/>
			<stop  offset="0.8206056" style="stop-color:#5B9FC9"/>
			<stop  offset="1" style="stop-color:#3C79AC"/>
		</linearGradient>
		<rect x="11.4008026" y="0.1720581" class="st5" width="16.8379974" height="25.9179077"/>
	</g>
	<g>
		<defs>
			<polygon id="SVGID_12_" points="8.1507988,15.2509766 5.726799,18.7149658 3.3008003,15.2509766 0.5718002,15.2509766 
				4.3618011,20.6710205 0.5718002,26.0899658 3.3008003,26.0899658 5.726799,22.6270142 8.1507988,26.0899658 
				10.9018021,26.0899658 7.0908012,20.6710205 10.9018021,15.2509766 			"/>
		</defs>
		<clipPath id="SVGID_13_">
			<use xlink:href="#SVGID_12_"  style="overflow:visible;"/>
		</clipPath>
		
			<linearGradient id="SVGID_14_" gradientUnits="userSpaceOnUse" x1="-47.9317551" y1="796.796814" x2="-46.9317551" y2="796.796814" gradientTransform="matrix(0 -23.1217461 -23.1217461 0 18429.0703125 -1082.8422852)">
			<stop  offset="0" style="stop-color:#33659C"/>
			<stop  offset="0.009698" style="stop-color:#356AA0"/>
			<stop  offset="0.0456404" style="stop-color:#3E7CAE"/>
			<stop  offset="0.0845239" style="stop-color:#448CBA"/>
			<stop  offset="0.1267118" style="stop-color:#499AC5"/>
			<stop  offset="0.1738624" style="stop-color:#4DA4CD"/>
			<stop  offset="0.2299872" style="stop-color:#50AAD1"/>
			<stop  offset="0.318301" style="stop-color:#51ACD3"/>
			<stop  offset="0.4228205" style="stop-color:#69BDE0"/>
			<stop  offset="0.5293065" style="stop-color:#7ACCEB"/>
			<stop  offset="0.60709" style="stop-color:#7FD3F0"/>
			<stop  offset="0.8206056" style="stop-color:#5B9FC9"/>
			<stop  offset="1" style="stop-color:#3C79AC"/>
		</linearGradient>
		<rect x="0.5718002" y="15.2510376" class="st6" width="10.3299942" height="10.8389282"/>
	</g>
</g>
<g>
</g>
<g>
</g>
<g>
</g>
<g>
</g>
<g>
</g>
<g>
</g>
</svg>
