<?xml version="1.0" encoding="UTF-8" standalone="no"?>
<!-- Created with Inkscape (http://www.inkscape.org/) -->

<svg
   xmlns:dc="http://purl.org/dc/elements/1.1/"
   xmlns:cc="http://creativecommons.org/ns#"
   xmlns:rdf="http://www.w3.org/1999/02/22-rdf-syntax-ns#"
   xmlns:svg="http://www.w3.org/2000/svg"
   xmlns="http://www.w3.org/2000/svg"
   xmlns:sodipodi="http://sodipodi.sourceforge.net/DTD/sodipodi-0.dtd"
   xmlns:inkscape="http://www.inkscape.org/namespaces/inkscape"
   width="53.790001"
   height="20.129999"
   id="svg3080"
   version="1.1"
   inkscape:version="0.47 r22583"
   sodipodi:docname="New document 3">
  <defs
     id="defs3082">
    <inkscape:perspective
       sodipodi:type="inkscape:persp3d"
       inkscape:vp_x="0 : 526.18109 : 1"
       inkscape:vp_y="0 : 1000 : 0"
       inkscape:vp_z="744.09448 : 526.18109 : 1"
       inkscape:persp3d-origin="372.04724 : 350.78739 : 1"
       id="perspective3088" />
    <inkscape:perspective
       id="perspective3042"
       inkscape:persp3d-origin="0.5 : 0.33333333 : 1"
       inkscape:vp_z="1 : 0.5 : 1"
       inkscape:vp_y="0 : 1000 : 0"
       inkscape:vp_x="0 : 0.5 : 1"
       sodipodi:type="inkscape:persp3d" />
  </defs>
  <sodipodi:namedview
     id="base"
     pagecolor="#ffffff"
     bordercolor="#666666"
     borderopacity="1.0"
     inkscape:pageopacity="0.0"
     inkscape:pageshadow="2"
     inkscape:zoom="16.607609"
     inkscape:cx="26.683122"
     inkscape:cy="9.5803764"
     inkscape:document-units="px"
     inkscape:current-layer="layer1"
     showgrid="false"
     inkscape:window-width="1024"
     inkscape:window-height="708"
     inkscape:window-x="-4"
     inkscape:window-y="-4"
     inkscape:window-maximized="1" />
  <metadata
     id="metadata3085">
    <rdf:RDF>
      <cc:Work
         rdf:about="">
        <dc:format>image/svg+xml</dc:format>
        <dc:type
           rdf:resource="http://purl.org/dc/dcmitype/StillImage" />
        <dc:title></dc:title>
      </cc:Work>
    </rdf:RDF>
  </metadata>
  <g
     inkscape:label="Layer 1"
     inkscape:groupmode="layer"
     id="layer1"
     transform="translate(-276.96214,-481.29655)">
    <g
       id="g80"
       transform="matrix(1.25,0,0,-1.25,284.42972,496.93939)">
      <path
         d="m 0,0 c 0,0.242 -0.077,0.333 -0.314,0.333 l -1.067,0 0,-2.424 1.062,0 C -0.106,-2.091 0,-2.03 0,-1.774 L 0,0 z m -0.217,-2.681 -1.973,0 0,3.601 2.007,0 c 0.725,0 0.986,-0.317 0.986,-0.906 l 0,-1.696 c 0,-0.791 -0.324,-0.999 -1.02,-0.999"
         style="fill:#231f20;fill-opacity:1;fill-rule:nonzero;stroke:none"
         id="path82" />
    </g>
    <path
       d="m 286.48098,500.29065 1.0025,0 0,-4.50125 -1.0025,0 0,4.50125 z"
       style="fill:#231f20;fill-opacity:1;fill-rule:nonzero;stroke:none"
       id="path84" />
    <g
       id="g86"
       transform="matrix(1.25,0,0,-1.25,291.58597,500.29064)">
      <path
         d="m 0,0 -0.083,0.242 c -0.119,-0.158 -0.35,-0.311 -0.901,-0.311 l -0.396,0 c -0.689,0 -1.064,0.221 -1.064,0.99 l 0,1.808 c 0,0.944 0.704,0.95 1.194,0.95 l 0.943,0 c 0.359,0 0.674,-0.069 0.83,-0.161 l 0,-0.463 -1.819,0 c -0.213,0 -0.346,-0.048 -0.346,-0.34 l 0,-1.884 c 0,-0.235 0.148,-0.291 0.338,-0.291 l 0.559,0 c 0.152,0 0.438,0.063 0.569,0.131 l 0,0.839 -0.754,0 0,0.528 1.536,0 L 0.606,0 0,0"
         style="fill:#231f20;fill-opacity:1;fill-rule:nonzero;stroke:none"
         id="path88" />
    </g>
    <path
       d="m 293.42223,500.29065 1.005,0 0,-4.50125 -1.005,0 0,4.50125 z"
       style="fill:#231f20;fill-opacity:1;fill-rule:nonzero;stroke:none"
       id="path90" />
    <g
       id="g92"
       transform="matrix(1.25,0,0,-1.25,297.34472,496.52441)">
      <path
         d="m 0,0 0,-3.013 -0.805,0 0,3.013 -1.083,0 0,0.588 2.962,0 0,-0.588"
         style="fill:#231f20;fill-opacity:1;fill-rule:nonzero;stroke:none"
         id="path94" />
    </g>
    <g
       id="g96"
       transform="matrix(1.25,0,0,-1.25,300.79471,496.62065)">
      <path
         d="m 0,0 -0.046,0.216 -0.015,0 L -0.113,0 l -0.45,-1.405 1.022,0 L 0,0 z m 0.961,-2.936 -0.303,0.929 -1.407,0 -0.302,-0.929 -0.715,0 1.287,3.637 0.953,0 1.306,-3.637"
         style="fill:#231f20;fill-opacity:1;fill-rule:nonzero;stroke:none"
         id="path98" />
    </g>
    <g
       id="g100"
       transform="matrix(1.25,0,0,-1.25,303.66722,500.29064)">
      <path
         d="m 0,0 0,3.601 0.802,0 0,-2.992 1.658,0 0,-0.609"
         style="fill:#231f20;fill-opacity:1;fill-rule:nonzero;stroke:none"
         id="path102" />
    </g>
    <g
       id="g104"
       transform="matrix(1.25,0,0,-1.25,311.72473,496.91315)">
      <path
         d="m 0,0 c 0,0.221 -0.125,0.311 -0.344,0.311 l -0.987,0 0,-1.252 0.998,0 C -0.115,-0.941 0,-0.853 0,-0.624 L 0,0 z m -0.13,-1.538 -1.201,0 0,-1.164 -0.801,0 0,3.601 1.928,0 c 0.694,0 1.002,-0.256 1.002,-0.912 l 0,-0.632 c 0,-0.63 -0.253,-0.893 -0.928,-0.893"
         style="fill:#231f20;fill-opacity:1;fill-rule:nonzero;stroke:none"
         id="path106" />
    </g>
    <g
       id="g108"
       transform="matrix(1.25,0,0,-1.25,313.53971,500.29064)">
      <path
         d="m 0,0 0,3.601 0.805,0 0,-2.992 1.656,0 0,-0.609"
         style="fill:#231f20;fill-opacity:1;fill-rule:nonzero;stroke:none"
         id="path110" />
    </g>
    <g
       id="g112"
       transform="matrix(1.25,0,0,-1.25,319.78097,500.3844)">
      <path
         d="m 0,0 -0.954,0 c -0.689,0 -1.018,0.207 -1.018,0.983 l 0,2.693 0.804,0 0,-2.742 c 0,-0.23 0.11,-0.311 0.301,-0.311 l 0.861,0 c 0.193,0 0.303,0.081 0.303,0.311 l 0,2.742 0.713,0 0,-2.693 C 1.01,0.207 0.688,0 0,0"
         style="fill:#231f20;fill-opacity:1;fill-rule:nonzero;stroke:none"
         id="path114" />
    </g>
    <g
       id="g116"
       transform="matrix(1.25,0,0,-1.25,324.29473,500.37689)">
      <path
         d="m 0,0 -1.048,0 c -0.242,0 -0.569,0.049 -0.72,0.221 l 0,0.388 1.71,0 c 0.157,0 0.223,0.089 0.223,0.235 l 0,0.355 c 0,0.174 -0.051,0.234 -0.26,0.269 L -0.954,1.587 C -1.553,1.668 -1.78,1.842 -1.78,2.363 l 0,0.553 c 0,0.519 0.278,0.832 0.997,0.832 l 0.839,0 c 0.239,0 0.584,-0.056 0.716,-0.216 l 0,-0.415 -1.607,0 c -0.168,0 -0.224,-0.062 -0.224,-0.243 l 0,-0.326 c 0,-0.179 0.105,-0.235 0.271,-0.255 L 0.207,2.161 C 0.734,2.092 0.912,1.932 0.912,1.393 l 0,-0.582 C 0.912,0.27 0.677,0 0,0"
         style="fill:#231f20;fill-opacity:1;fill-rule:nonzero;stroke:none"
         id="path118" />
    </g>
    <g
       id="g120"
       transform="matrix(1.25,0,0,-1.25,329.45098,500.27189)">
      <path
         d="m 0,0 0,4.986 -40.972,0 c -0.085,0 -0.152,0.07 -0.152,0.151 0,0.092 0.067,0.161 0.152,0.161 l 41.125,0 L 0.264,5.251 0.307,5.137 0.308,0 C 0.308,-0.084 0.237,-0.153 0.153,-0.153 0.071,-0.153 0,-0.084 0,0"
         style="fill:#231f20;fill-opacity:1;fill-rule:nonzero;stroke:none"
         id="path122" />
    </g>
    <g
       id="g124"
       transform="matrix(1.25,0,0,-1.25,328.21472,483.3819)">
      <path
         d="M 0,0 -1.498,-2.722 -2.949,0 -4.306,0 c 0.251,-0.463 2.03,-3.81 2.03,-3.81 l 0,-2.202 1.458,0 0,2.196 c 0,0 1.846,3.353 2.108,3.816 L 0,0"
         style="fill:#231f20;fill-opacity:1;fill-rule:nonzero;stroke:none"
         id="path126" />
    </g>
    <g
       id="g128"
       transform="matrix(1.25,0,0,-1.25,290.36599,490.7144)">
      <path
         d="m 0,0 -1.27,0 c -1.315,0 -2.412,1.281 -2.412,2.868 0,1.537 1.097,2.839 2.412,2.839 L 0,5.707 0,0 z m -7.222,0 -1.266,0 0,5.707 1.266,0 c 1.314,0 2.413,-1.302 2.413,-2.839 C -4.809,1.281 -5.908,0 -7.222,0 m -2.576,-0.998 11.105,0 0,7.702 -11.105,0 0,-7.702 z"
         style="fill:#231f20;fill-opacity:1;fill-rule:nonzero;stroke:none"
         id="path130" />
    </g>
    <g
       id="g132"
       transform="matrix(1.25,0,0,-1.25,308.58473,483.80565)">
      <path
         d="M 0,0 C -0.415,0.292 -1.113,0.443 -2.018,0.443 -2.903,0.443 -3.545,0.319 -4.039,0 -4.554,-0.332 -4.795,-0.886 -4.795,-1.759 l 0,-1.891 c 0,-0.873 0.251,-1.462 0.751,-1.759 0.404,-0.278 1.064,-0.415 2.026,-0.415 0.949,0 1.626,0.137 2.015,0.407 0.5,0.313 0.763,0.922 0.763,1.767 l 0,1.891 C 0.76,-0.928 0.503,-0.339 0,0 m -0.601,-3.567 c 0,-1.066 -0.372,-1.309 -1.417,-1.309 -1.046,0 -1.418,0.243 -1.418,1.309 l 0,1.8 c 0,1.04 0.372,1.262 1.418,1.262 1.045,0 1.417,-0.222 1.417,-1.262 l 0,-1.8"
         style="fill:#231f20;fill-opacity:1;fill-rule:nonzero;stroke:none"
         id="path134" />
    </g>
    <g
       id="g136"
       transform="matrix(1.25,0,0,-1.25,298.52599,483.3819)">
      <path
         d="m 0,0 -3.009,0 0,-6.012 3.218,0 c 1.588,0 2.177,0.651 2.177,2.39 l 0,1.323 C 2.386,-0.65 1.716,0 0,0 m 1.042,-3.768 c 0,-1.053 -0.562,-1.316 -1.033,-1.316 l -1.665,0 0,4.198 1.665,0 c 0.471,0 1.033,-0.263 1.033,-1.24 l 0,-1.642"
         style="fill:#231f20;fill-opacity:1;fill-rule:nonzero;stroke:none"
         id="path138" />
    </g>
    <g
       id="g140"
       transform="matrix(1.25,0,0,-1.25,312.47347,483.3819)">
      <path
         d="m 0,0 -1.357,0 0,-6.012 3.86,0 0,1.005 -2.503,0"
         style="fill:#231f20;fill-opacity:1;fill-rule:nonzero;stroke:none"
         id="path142" />
    </g>
    <g
       id="g144"
       transform="matrix(1.25,0,0,-1.25,319.75724,489.7969)">
      <path
         d="m 0,0 -1.224,0 0,4.266 1.334,0 c 0.451,0 0.735,-0.359 0.735,-0.844 0,-0.755 -0.367,-0.775 -1.406,-0.811 l 0,-0.698 C 0.368,1.919 1.112,1.975 1.112,1.011 1.112,0.527 0.804,0 0,0 M 0.718,2.3 C 1.785,2.397 2.016,2.925 2.016,3.671 2.016,4.33 1.736,4.669 1.429,4.863 1.173,5.022 0.868,5.132 0.228,5.132 l -2.808,0 0,-6.012 2.846,0 c 0.875,0 1.239,0.174 1.41,0.292 0.286,0.194 0.662,0.623 0.662,1.301 0,0.811 -0.279,1.621 -1.62,1.587"
         style="fill:#231f20;fill-opacity:1;fill-rule:nonzero;stroke:none"
         id="path146" />
    </g>
  </g>
</svg>
