<?xml version="1.0" encoding="UTF-8" standalone="no"?>
<!-- Created with Inkscape (http://www.inkscape.org/) -->
<svg
   xmlns:dc="http://purl.org/dc/elements/1.1/"
   xmlns:cc="http://creativecommons.org/ns#"
   xmlns:rdf="http://www.w3.org/1999/02/22-rdf-syntax-ns#"
   xmlns:svg="http://www.w3.org/2000/svg"
   xmlns="http://www.w3.org/2000/svg"
   xmlns:sodipodi="http://sodipodi.sourceforge.net/DTD/sodipodi-0.dtd"
   xmlns:inkscape="http://www.inkscape.org/namespaces/inkscape"
   width="53.517582"
   height="18.801126"
   id="svg8838"
   sodipodi:version="0.32"
   inkscape:version="0.46"
   version="1.0"
   sodipodi:docname="Dolby-Digital-Logo.svg"
   inkscape:output_extension="org.inkscape.output.svg.inkscape">
  <defs
     id="defs8840">
    <clipPath
       clipPathUnits="userSpaceOnUse"
       id="clipPath5671">
      <path
         d="M 62.693,221.221 L 108.78,221.221 L 108.78,247.278 L 62.693,247.278 L 62.693,221.221 z"
         id="path5673" />
    </clipPath>
    <clipPath
       clipPathUnits="userSpaceOnUse"
       id="clipPath5667">
      <path
         d="M 62.6929,247.278 L 108.78,247.278 L 108.78,221.221 L 62.6929,221.221 L 62.6929,247.278 z"
         id="path5669" />
    </clipPath>
    <clipPath
       clipPathUnits="userSpaceOnUse"
       id="clipPath5655">
      <path
         d="M 43.0378,302.716 L 152.438,302.716 L 152.438,147.994 L 43.0378,147.994 L 43.0378,302.716 z"
         id="path5657" />
    </clipPath>
    <clipPath
       clipPathUnits="userSpaceOnUse"
       id="clipPath5639">
      <path
         d="M -0.0281525,-0.936966 L 1.04219,-0.936966 L 1.04219,0.878082 L -0.0281525,0.878082 L -0.0281525,-0.936966 z"
         id="path5641" />
    </clipPath>
    <clipPath
       clipPathUnits="userSpaceOnUse"
       id="clipPath5629">
      <path
         d="M 114.963,253.299 L 109.153,222.167 L 56.361,232.02 L 62.171,263.152 L 114.963,253.299 z"
         id="path5631" />
    </clipPath>
    <clipPath
       clipPathUnits="userSpaceOnUse"
       id="clipPath5621">
      <path
         d="M 107.931,253.39 C 107.93,253.391 107.928,253.391 107.927,253.392 C 107.911,253.4 107.894,253.407 107.878,253.414 C 106.973,253.829 105.918,254.067 104.794,254.067 L 66.531,254.067 C 63.2,254.067 60.475,251.977 60.475,249.421 L 60.475,231.292 C 60.712,231.278 60.949,231.264 61.188,231.252 L 61.188,249.42 C 61.188,250.41 61.646,251.318 62.409,252.027 C 63.389,252.939 64.872,253.521 66.531,253.521 L 104.795,253.521 C 107.741,253.521 110.137,251.682 110.137,249.421 L 110.137,249.42 L 110.137,244.589 C 110.375,244.745 110.611,244.903 110.848,245.063 L 110.848,249.42 C 110.848,249.802 110.787,250.174 110.672,250.53 C 110.284,251.735 109.279,252.759 107.931,253.39"
         id="path5623" />
    </clipPath>
    <clipPath
       clipPathUnits="userSpaceOnUse"
       id="clipPath5605">
      <path
         d="M -0.288605,-1.08891 L 0.993591,-1.08891 L 0.993591,1.08891 L -0.288605,1.08891 L -0.288605,-1.08891 z"
         id="path5607" />
    </clipPath>
    <clipPath
       clipPathUnits="userSpaceOnUse"
       id="clipPath5595">
      <path
         d="M 110.848,215.405 L 60.475,215.405 L 60.475,245.062 L 110.848,245.062 L 110.848,215.405 z"
         id="path5597" />
    </clipPath>
    <clipPath
       clipPathUnits="userSpaceOnUse"
       id="clipPath5587">
      <path
         d="M 110.137,244.589 L 110.137,220.052 C 110.137,217.791 107.741,215.952 104.795,215.952 L 66.531,215.952 C 63.583,215.952 61.188,217.791 61.188,220.052 L 61.188,231.252 C 60.949,231.264 60.712,231.278 60.475,231.292 L 60.475,220.052 C 60.475,217.496 63.2,215.405 66.531,215.405 L 104.795,215.405 C 108.124,215.405 110.848,217.496 110.848,220.052 L 110.848,245.063 C 110.611,244.903 110.375,244.745 110.137,244.589"
         id="path5589" />
    </clipPath>
    <clipPath
       clipPathUnits="userSpaceOnUse"
       id="clipPath5571">
      <path
         d="M -0.0100098,-1.10071 L 1.13115,-1.10071 L 1.13115,1.06299 L -0.0100098,1.06299 L -0.0100098,-1.10071 z"
         id="path5573" />
    </clipPath>
    <clipPath
       clipPathUnits="userSpaceOnUse"
       id="clipPath5561">
      <path
         d="M 112.225,253.323 L 109.703,226.633 L 59.098,231.415 L 61.62,258.105 L 112.225,253.323 z"
         id="path5563" />
    </clipPath>
    <clipPath
       clipPathUnits="userSpaceOnUse"
       id="clipPath5553">
      <path
         d="M 104.792,253.52 L 66.53,253.52 C 63.582,253.52 61.187,251.68 61.187,249.42 L 61.187,231.252 C 61.423,231.239 61.66,231.228 61.898,231.218 L 61.898,249.42 C 61.898,250.498 62.526,251.465 63.517,252.117 C 64.327,252.651 65.38,252.973 66.53,252.973 L 66.53,252.973 L 104.792,252.973 L 104.792,252.973 C 107.347,252.973 109.425,251.38 109.425,249.42 L 109.425,249.42 L 109.425,244.124 C 109.662,244.277 109.899,244.432 110.136,244.589 L 110.136,249.42 C 110.136,251.68 107.737,253.52 104.792,253.52"
         id="path5555" />
    </clipPath>
    <clipPath
       clipPathUnits="userSpaceOnUse"
       id="clipPath5537">
      <path
         d="M 0.0107727,-1.08723 L 1.28288,-1.08723 L 1.28288,1.08722 L 0.0107727,1.08722 L 0.0107727,-1.08723 z"
         id="path5539" />
    </clipPath>
    <clipPath
       clipPathUnits="userSpaceOnUse"
       id="clipPath5527">
      <path
         d="M 61.187,244.589 L 110.136,244.589 L 110.136,215.952 L 61.187,215.952 L 61.187,244.589 z"
         id="path5529" />
    </clipPath>
    <clipPath
       clipPathUnits="userSpaceOnUse"
       id="clipPath5519">
      <path
         d="M 109.425,244.124 L 109.425,220.052 C 109.425,218.092 107.346,216.499 104.792,216.499 L 66.53,216.499 C 63.974,216.499 61.898,218.092 61.898,220.052 L 61.898,231.218 C 61.66,231.228 61.423,231.239 61.187,231.252 L 61.187,220.052 C 61.187,217.791 63.582,215.952 66.53,215.952 L 104.792,215.952 C 107.737,215.952 110.136,217.791 110.136,220.052 L 110.136,244.589 C 109.899,244.432 109.662,244.277 109.425,244.124"
         id="path5521" />
    </clipPath>
    <clipPath
       clipPathUnits="userSpaceOnUse"
       id="clipPath5503">
      <path
         d="M 0.0280762,-0.30011 L 1.0553,-0.30011 L 1.0553,0.480759 L 0.0280762,0.480759 L 0.0280762,-0.30011 z"
         id="path5505" />
    </clipPath>
    <clipPath
       clipPathUnits="userSpaceOnUse"
       id="clipPath5493">
      <path
         d="M 51.688,249.972 L 101.853,273.364 L 119.635,235.23 L 69.47,211.837 L 51.688,249.972 z"
         id="path5495" />
    </clipPath>
    <clipPath
       clipPathUnits="userSpaceOnUse"
       id="clipPath5485">
      <path
         d="M 104.796,254.068 L 66.529,254.068 C 63.197,254.068 60.472,251.977 60.472,249.421 L 60.472,231.291 C 62.148,231.189 63.87,231.134 65.629,231.134 C 79.177,231.134 95.035,234.42 110.851,245.063 L 110.851,249.421 C 110.851,251.977 108.126,254.068 104.796,254.068"
         id="path5487" />
    </clipPath>
    <clipPath
       clipPathUnits="userSpaceOnUse"
       id="clipPath5469">
      <path
         d="M -0.371674,-0.890488 L 0.995239,-0.890488 L 0.995239,0.890472 L -0.371674,0.890472 L -0.371674,-0.890488 z"
         id="path5471" />
    </clipPath>
    <clipPath
       clipPathUnits="userSpaceOnUse"
       id="clipPath5459">
      <path
         d="M 110.848,215.405 L 60.475,215.405 L 60.475,254.067 L 110.848,254.067 L 110.848,215.405 z"
         id="path5461" />
    </clipPath>
    <clipPath
       clipPathUnits="userSpaceOnUse"
       id="clipPath5451">
      <path
         d="M 110.848,220.052 C 110.848,217.496 108.124,215.405 104.795,215.405 L 66.531,215.405 C 63.2,215.405 60.475,217.496 60.475,220.052 L 60.475,249.42 C 60.475,251.977 63.2,254.067 66.531,254.067 L 104.795,254.067 C 108.124,254.067 110.848,251.977 110.848,249.42 L 110.848,220.052 z"
         id="path5453" />
    </clipPath>
    <clipPath
       clipPathUnits="userSpaceOnUse"
       id="clipPath5441">
      <path
         d="M 57.638,259.087 L 114.331,259.087 L 114.331,202.394 L 57.638,202.394 L 57.638,259.087 z"
         id="path5443" />
    </clipPath>
    <clipPath
       clipPathUnits="userSpaceOnUse"
       id="clipPath5433">
      <path
         d="M 57.638,259.087 L 114.331,259.087 L 114.331,202.394 L 57.638,202.394 L 57.638,259.087 z"
         id="path5435" />
    </clipPath>
    <clipPath
       clipPathUnits="userSpaceOnUse"
       id="clipPath5425">
      <path
         d="M 57.638,259.087 L 114.331,259.087 L 114.331,202.394 L 57.638,202.394 L 57.638,259.087 z"
         id="path5427" />
    </clipPath>
    <clipPath
       clipPathUnits="userSpaceOnUse"
       id="clipPath5417">
      <path
         d="M 57.638,202.394 L 114.331,202.394 L 114.331,259.087 L 57.638,259.087 L 57.638,202.394 z"
         id="path5419" />
    </clipPath>
    <inkscape:perspective
       sodipodi:type="inkscape:persp3d"
       inkscape:vp_x="0 : 526.18109 : 1"
       inkscape:vp_y="0 : 1000 : 0"
       inkscape:vp_z="744.09448 : 526.18109 : 1"
       inkscape:persp3d-origin="372.04724 : 350.78739 : 1"
       id="perspective8846" />
  </defs>
  <sodipodi:namedview
     id="base"
     pagecolor="#ffffff"
     bordercolor="#666666"
     borderopacity="1.0"
     inkscape:pageopacity="0.0"
     inkscape:pageshadow="2"
     inkscape:zoom="9.8248965"
     inkscape:cx="28.804375"
     inkscape:cy="19.19875"
     inkscape:document-units="px"
     inkscape:current-layer="g5681"
     showgrid="false"
     inkscape:window-width="1152"
     inkscape:window-height="804"
     inkscape:window-x="-4"
     inkscape:window-y="-4" />
  <metadata
     id="metadata8843">
    <rdf:RDF>
      <cc:Work
         rdf:about="">
        <dc:format>image/svg+xml</dc:format>
        <dc:type
           rdf:resource="http://purl.org/dc/dcmitype/StillImage" />
      </cc:Work>
    </rdf:RDF>
  </metadata>
  <g
     inkscape:label="Ebene 1"
     inkscape:groupmode="layer"
     id="layer1"
     transform="translate(-284.46037,-358.87772)">
    <g
       transform="matrix(1.25,0,0,-1.25,204.25795,666.25522)"
       id="g5413"
       style="fill:#000000">
      <g
         id="g5415"
         clip-path="url(#clipPath5417)"
         style="fill:#000000">
        <g
           id="g5421"
           style="fill:#000000">
          <g
             id="g5423"
             clip-path="url(#clipPath5425)"
             style="fill:#000000">
            <g
               id="g5429"
               style="fill:#000000">
              <g
                 id="g5431"
                 clip-path="url(#clipPath5433)"
                 style="fill:#000000">
                <g
                   id="g5437"
                   style="fill:#000000">
                  <g
                     id="g5439"
                     clip-path="url(#clipPath5441)"
                     style="fill:#000000">
                    <g
                       id="g5447"
                       style="fill:#000000">
                      <g
                         id="g5449"
                         clip-path="url(#clipPath5451)"
                         style="fill:#000000">
                        <g
                           id="g5455"
                           style="fill:#000000">
                          <g
                             id="g5457"
                             clip-path="url(#clipPath5459)"
                             style="fill:#000000">
                            <g
                               id="g5463"
                               style="fill:#000000">
                              <g
                                 id="g5465"
                                 style="fill:#000000">
                                <g
                                   id="g5467"
                                   clip-path="url(#clipPath5469)"
                                   style="fill:#000000">
                                <path
                                   d="M 110.848,215.405 L 60.475,215.405 L 60.475,254.067 L 110.848,254.067 L 110.848,215.405 z"
                                   style="fill:#000000;stroke:none"
                                   id="path5479" />
                                </g>
                              </g>
                            </g>
                          </g>
                        </g>
                      </g>
                    </g>
                    <g
                       id="g5481"
                       style="fill:#000000">
                      <g
                         id="g5483"
                         clip-path="url(#clipPath5485)"
                         style="fill:#000000">
                        <g
                           id="g5489"
                           style="fill:#000000">
                          <g
                             id="g5491"
                             clip-path="url(#clipPath5493)"
                             style="fill:#000000">
                            <g
                               id="g5497"
                               style="fill:#000000">
                              <g
                                 id="g5499"
                                 style="fill:#000000">
                                <g
                                   id="g5501"
                                   clip-path="url(#clipPath5503)"
                                   style="fill:#000000">
                                <path
                                   d="M 51.688,249.972 L 101.853,273.364 L 119.635,235.23 L 69.47,211.837 L 51.688,249.972 z"
                                   style="fill:#000000;stroke:none"
                                   id="path5513" />
                                </g>
                              </g>
                            </g>
                          </g>
                        </g>
                      </g>
                    </g>
                    <g
                       id="g5515"
                       style="fill:#000000">
                      <g
                         id="g5517"
                         clip-path="url(#clipPath5519)"
                         style="fill:#000000">
                        <g
                           id="g5523"
                           style="fill:#000000">
                          <g
                             id="g5525"
                             clip-path="url(#clipPath5527)"
                             style="fill:#000000">
                            <g
                               id="g5531"
                               style="fill:#000000">
                              <g
                                 id="g5533"
                                 style="fill:#000000">
                                <g
                                   id="g5535"
                                   clip-path="url(#clipPath5537)"
                                   style="fill:#000000">
                                <path
                                   d="M 61.187,244.589 L 110.136,244.589 L 110.136,215.952 L 61.187,215.952 L 61.187,244.589 z"
                                   style="fill:#000000;stroke:none"
                                   id="path5547" />
                                </g>
                              </g>
                            </g>
                          </g>
                        </g>
                      </g>
                    </g>
                    <g
                       id="g5549"
                       style="fill:#000000">
                      <g
                         id="g5551"
                         clip-path="url(#clipPath5553)"
                         style="fill:#000000">
                        <g
                           id="g5557"
                           style="fill:#000000">
                          <g
                             id="g5559"
                             clip-path="url(#clipPath5561)"
                             style="fill:#000000">
                            <g
                               id="g5565"
                               style="fill:#000000">
                              <g
                                 id="g5567"
                                 style="fill:#000000">
                                <g
                                   id="g5569"
                                   clip-path="url(#clipPath5571)"
                                   style="fill:#000000">
                                <path
                                   d="M 112.225,253.323 L 109.703,226.633 L 59.098,231.415 L 61.62,258.105 L 112.225,253.323 z"
                                   style="fill:#000000;stroke:none"
                                   id="path5581" />
                                </g>
                              </g>
                            </g>
                          </g>
                        </g>
                      </g>
                    </g>
                    <g
                       id="g5583"
                       style="fill:#000000">
                      <g
                         id="g5585"
                         clip-path="url(#clipPath5587)"
                         style="fill:#000000">
                        <g
                           id="g5591"
                           style="fill:#000000">
                          <g
                             id="g5593"
                             clip-path="url(#clipPath5595)"
                             style="fill:#000000">
                            <g
                               id="g5599"
                               style="fill:#000000">
                              <g
                                 id="g5601"
                                 style="fill:#000000">
                                <g
                                   id="g5603"
                                   clip-path="url(#clipPath5605)"
                                   style="fill:#000000">
                                <path
                                   d="M 110.848,215.405 L 60.475,215.405 L 60.475,245.062 L 110.848,245.062 L 110.848,215.405 z"
                                   style="fill:#000000;stroke:none"
                                   id="path5615" />
                                </g>
                              </g>
                            </g>
                          </g>
                        </g>
                      </g>
                    </g>
                    <g
                       id="g5617"
                       style="fill:#000000">
                      <g
                         id="g5619"
                         clip-path="url(#clipPath5621)"
                         style="fill:#000000">
                        <g
                           id="g5625"
                           style="fill:#000000">
                          <g
                             id="g5627"
                             clip-path="url(#clipPath5629)"
                             style="fill:#000000">
                            <g
                               id="g5633"
                               style="fill:#000000">
                              <g
                                 id="g5635"
                                 style="fill:#000000">
                                <g
                                   id="g5637"
                                   clip-path="url(#clipPath5639)"
                                   style="fill:#000000">
                                <path
                                   d="M 114.963,253.299 L 109.153,222.167 L 56.361,232.02 L 62.171,263.152 L 114.963,253.299 z"
                                   style="fill:#000000;stroke:none"
                                   id="path5649" />
                                </g>
                              </g>
                            </g>
                          </g>
                        </g>
                      </g>
                    </g>
                    <g
                       id="g5651"
                       style="fill:#000000">
                      <g
                         id="g5653"
                         style="fill:#000000" />
                      <g
                         id="g5659"
                         style="fill:#000000">
                        <g
                           clip-path="url(#clipPath5655)"
                           id="g5661"
                           style="opacity:0.80000299;fill:#000000" />
                      </g>
                    </g>
                    <g
                       id="g5663"
                       style="fill:#000000">
                      <g
                         id="g5665"
                         style="fill:#000000" />
                      <g
                         id="g5675"
                         style="fill:#000000">
                        <g
                           clip-path="url(#clipPath5667)"
                           id="g5677"
                           style="opacity:0.85000598;fill:#000000">
                          <g
                             id="g5679"
                             style="fill:#000000">
                            <g
                               clip-path="url(#clipPath5671)"
                               id="g5681"
                               style="fill:#000000">
                              <path
                                 d="M 65.636,244.62 L 65.636,237.595 C 66.749,237.6 67.581,237.521 68.293,237.88 C 70.448,238.965 70.678,242.622 68.816,244.145 C 68.026,244.791 67.05,244.797 65.683,244.762 C 65.628,244.754 65.632,244.687 65.636,244.62 M 64.212,245.902 L 71.284,245.902 L 71.284,236.456 L 64.164,236.456 L 64.164,245.759 C 64.16,245.827 64.156,245.894 64.212,245.902"
                                 style="fill:#000000;fill-opacity:1;fill-rule:evenodd;stroke:none"
                                 id="path5683" />
                              <path
                                 d="M 75.888,244.762 C 72.816,244.474 72.179,239.964 74.321,238.212 C 75.12,237.559 76.097,237.561 77.501,237.595 L 77.501,244.762 C 76.875,244.731 76.354,244.806 75.888,244.762 M 71.948,245.902 L 78.973,245.902 L 78.973,236.456 L 71.901,236.456 L 71.901,245.759 C 71.897,245.827 71.893,245.894 71.948,245.902"
                                 style="fill:#000000;fill-opacity:1;fill-rule:evenodd;stroke:none"
                                 id="path5685" />
                              <path
                                 d="M 81.536,245.142 L 81.536,237.073 L 106.312,237.073 C 106.391,239.7 106.391,242.658 106.312,245.285 L 81.583,245.285 C 81.528,245.277 81.532,245.21 81.536,245.142 M 80.919,245.902 L 106.976,245.902 L 106.976,236.456 L 80.871,236.456 L 80.871,245.759 C 80.867,245.827 80.863,245.894 80.919,245.902"
                                 style="fill:#000000;fill-opacity:1;fill-rule:evenodd;stroke:none"
                                 id="path5687" />
                              <path
                                 d="M 89.557,242.247 C 89.335,241.779 89.335,240.579 89.557,240.111 C 89.884,239.924 90.559,239.924 90.886,240.111 C 91.108,240.579 91.108,241.779 90.886,242.247 C 90.51,242.411 89.934,242.411 89.557,242.247 M 89.747,243.291 C 90.65,243.385 91.553,243.318 91.93,242.816 C 92.384,242.212 92.3,240.041 91.93,239.541 C 91.381,238.801 89.094,238.775 88.513,239.541 C 88.097,240.09 88.182,242.385 88.513,242.816 C 88.771,243.152 89.058,243.22 89.747,243.291"
                                 style="fill:#000000;fill-opacity:1;fill-rule:evenodd;stroke:none"
                                 id="path5689" />
                              <path
                                 d="M 86.472,242.247 C 86.135,242.5 85.55,242.297 85.048,242.294 L 85.048,240.064 C 85.399,239.974 86.021,240.002 86.377,240.064 C 86.681,240.382 86.944,241.891 86.472,242.247 M 84.004,243.291 C 85.267,243.175 86.832,243.579 87.469,242.911 C 88.096,242.253 88.006,239.734 87.279,239.257 C 86.367,238.658 85.201,239.311 83.956,239.067 L 83.956,243.149 C 83.952,243.216 83.949,243.283 84.004,243.291"
                                 style="fill:#000000;fill-opacity:1;fill-rule:evenodd;stroke:none"
                                 id="path5691" />
                              <path
                                 d="M 93.829,243.291 L 93.829,240.064 C 94.338,239.955 95.045,240.046 95.632,240.016 L 95.632,239.067 L 92.737,239.067 L 92.737,243.291 L 93.829,243.291 z"
                                 style="fill:#000000;fill-opacity:1;fill-rule:evenodd;stroke:none"
                                 id="path5693" />
                              <path
                                 d="M 97.246,239.969 C 97.668,240.005 98.252,239.88 98.528,240.064 C 98.65,240.19 98.65,240.544 98.575,240.728 C 98.274,240.901 97.691,240.793 97.246,240.823 L 97.246,239.969 z M 97.246,241.582 C 97.663,241.609 98.205,241.51 98.48,241.677 C 98.6,241.846 98.6,242.173 98.48,242.342 C 98.15,242.439 97.651,242.367 97.246,242.389 L 97.246,241.582 z M 99.002,241.25 C 99.948,241.17 99.973,239.601 99.382,239.209 C 98.601,238.691 97.163,239.301 96.107,239.067 L 96.107,243.291 C 97.163,243.097 99.003,243.681 99.524,242.959 C 99.845,242.514 99.798,241.232 99.002,241.25"
                                 style="fill:#000000;fill-opacity:1;fill-rule:evenodd;stroke:none"
                                 id="path5695" />
                              <path
                                 d="M 99.904,243.244 C 100.237,243.354 100.774,243.26 101.185,243.291 C 101.403,242.734 101.707,242.262 101.898,241.677 C 102.32,242.078 102.466,242.754 102.752,243.291 L 104.033,243.291 C 103.572,242.329 103.015,241.461 102.515,240.538 L 102.515,239.067 L 101.423,239.067 C 101.598,240.45 101.178,240.963 100.711,241.82 C 100.41,242.372 100.145,242.853 99.904,243.244"
                                 style="fill:#000000;fill-opacity:1;fill-rule:evenodd;stroke:none"
                                 id="path5697" />
                              <path
                                 d="M 80.871,233.656 L 79.922,233.656 C 79.72,233.846 79.706,234.03 79.495,234.131 C 78.086,234.803 77.542,232.26 78.735,231.805 C 79.386,231.756 79.855,231.888 79.97,232.375 C 79.826,232.484 79.48,232.391 79.258,232.422 L 79.258,233.181 L 80.919,233.181 L 80.919,230.998 L 80.254,230.998 C 80.265,231.151 80.17,231.199 80.207,231.378 C 79.961,231.276 79.808,231.028 79.542,230.951 C 78.156,230.547 77.216,231.579 77.074,232.564 C 76.834,234.232 78.083,235.216 79.352,235.08 C 79.989,235.012 80.83,234.537 80.871,233.656"
                                 style="fill:#000000;fill-opacity:1;fill-rule:evenodd;stroke:none"
                                 id="path5699" />
                              <path
                                 d="M 65.446,234.131 C 65.476,233.386 65.384,232.519 65.493,231.852 C 67.628,231.358 67.639,234.614 65.446,234.131 M 64.497,234.985 C 66.112,235.047 67.488,235.088 67.961,233.988 C 68.346,233.095 68.108,231.833 67.439,231.33 C 66.795,230.846 65.618,231.035 64.449,230.998 C 64.481,232.311 64.386,233.751 64.497,234.985"
                                 style="fill:#000000;fill-opacity:1;fill-rule:evenodd;stroke:none"
                                 id="path5701" />
                              <path
                                 d="M 73.04,230.998 L 72.043,230.998 L 72.043,234.985 L 73.04,234.985 L 73.04,230.998 z"
                                 style="fill:#000000;fill-opacity:1;fill-rule:evenodd;stroke:none"
                                 id="path5703" />
                              <path
                                 d="M 85.95,230.998 L 84.906,230.998 L 84.906,234.985 L 85.95,234.985 L 85.95,230.998 z"
                                 style="fill:#000000;fill-opacity:1;fill-rule:evenodd;stroke:none"
                                 id="path5705" />
                              <path
                                 d="M 93.259,234.985 L 93.259,234.131 L 92.12,234.131 C 92.009,233.181 92.104,232.026 92.073,230.998 L 91.028,230.998 L 91.028,234.131 L 89.842,234.131 L 89.842,234.985 L 93.259,234.985 z"
                                 style="fill:#000000;fill-opacity:1;fill-rule:evenodd;stroke:none"
                                 id="path5707" />
                              <path
                                 d="M 97.768,232.469 L 98.67,232.469 C 98.509,232.941 98.401,233.466 98.195,233.893 C 98.075,233.397 97.85,233.005 97.768,232.469 M 98.765,234.985 C 99.228,233.629 99.759,232.34 100.236,230.998 L 99.145,230.998 C 99.076,231.246 98.996,231.483 98.907,231.71 L 97.531,231.71 C 97.376,231.533 97.362,231.214 97.246,230.998 L 96.202,230.998 C 96.692,232.343 97.159,233.712 97.721,234.985 L 98.765,234.985 z"
                                 style="fill:#000000;fill-opacity:1;fill-rule:evenodd;stroke:none"
                                 id="path5709" />
                              <path
                                 d="M 104.935,234.985 L 104.935,231.9 C 105.473,231.789 106.217,231.884 106.834,231.852 L 106.834,230.998 L 103.891,230.998 L 103.891,234.985 L 104.935,234.985 z"
                                 style="fill:#000000;fill-opacity:1;fill-rule:evenodd;stroke:none"
                                 id="path5711" />
                            </g>
                          </g>
                        </g>
                      </g>
                    </g>
                  </g>
                </g>
              </g>
            </g>
          </g>
        </g>
      </g>
    </g>
  </g>
</svg>
