<?xml version="1.0" encoding="utf-8"?>
<!-- Generator: Adobe Illustrator 15.0.0, SVG Export Plug-In . SVG Version: 6.00 Build 0)  -->
<!DOCTYPE svg PUBLIC "-//W3C//DTD SVG 1.1//EN" "http://www.w3.org/Graphics/SVG/1.1/DTD/svg11.dtd">
<svg version="1.1" id="svg2" xmlns:svg="http://www.w3.org/2000/svg"
	 xmlns="http://www.w3.org/2000/svg" xmlns:xlink="http://www.w3.org/1999/xlink" x="0px" y="0px" width="364.5px"
	 height="85.816px" viewBox="0 0 364.5 85.816" enable-background="new 0 0 364.5 85.816" xml:space="preserve">
<path id="path239" d="M143.936,63.907c0-1.565-0.516-2.14-2.037-2.14h-6.941v15.747h6.91c1.393,0,2.068-0.44,2.068-2.101V63.907
	L143.936,63.907z M142.512,81.337h-12.797V57.906h13.037c4.703,0,6.395,2.1,6.395,5.923v10.995
	C149.146,79.952,147.055,81.337,142.512,81.337"/>
<rect id="rect241" x="154.588" y="57.914" width="5.211" height="23.423"/>
<path id="path243" d="M181.131,81.337l-0.539-1.589c-0.783,1.015-2.281,1.998-5.863,1.998h-2.572c-4.469,0-6.91-1.385-6.91-6.395
	V63.593c0-6.088,4.574-6.166,7.756-6.166h6.131c2.336,0,4.365,0.448,5.379,1.022v3.02h-11.813c-1.389,0-2.234,0.331-2.234,2.234
	v12.223c0,1.518,0.943,1.888,2.197,1.888h3.619c0.99,0,2.852-0.401,3.697-0.842v-5.451h-4.904v-3.444h9.984v13.261H181.131
	L181.131,81.337z"/>
<rect id="rect245" x="190.662" y="57.914" width="5.219" height="23.423"/>
<polygon id="polygon247" points="211.041,61.736 211.041,81.337 205.83,81.337 205.83,61.736 198.791,61.736 198.791,57.914 
	218.014,57.914 218.014,61.736 "/>
<path id="path249" d="M228.982,62.24l-0.314-1.385h-0.1l-0.338,1.385l-2.914,9.147h6.639L228.982,62.24z M235.207,81.337
	l-1.967-6.025h-9.139l-1.967,6.025h-4.641l8.369-23.627h6.193l8.475,23.627H235.207z"/>
<polygon id="polygon251" points="243.895,81.337 243.895,57.906 249.113,57.906 249.113,77.341 259.873,77.341 259.873,81.337 "/>
<path id="path253" d="M285.766,63.797c0-1.455-0.811-2.061-2.227-2.061h-6.41V69.9h6.473c1.416,0,2.164-0.613,2.164-2.068V63.797z
	 M284.924,73.755h-7.795v7.582h-5.215V57.898h12.529c4.508,0,6.506,1.699,6.506,5.978v4.09
	C290.949,72.024,289.313,73.755,284.924,73.755"/>
<polygon id="polygon255" points="295.195,81.337 295.195,57.906 300.41,57.906 300.41,77.341 311.178,77.341 311.178,81.337 "/>
<path id="path257" d="M327.631,81.816h-6.205c-4.459,0-6.598-1.36-6.598-6.402V57.898h5.213v17.854c0,1.495,0.709,1.998,1.959,1.998
	h5.6c1.244,0,1.951-0.503,1.951-1.998V57.898h4.641v17.516C334.191,80.456,332.1,81.816,327.631,81.816"/>
<path id="path259" d="M351.078,81.746h-6.803c-1.566,0-3.697-0.308-4.672-1.385v-2.58h11.105c1.021,0,1.455-0.534,1.455-1.494V73.99
	c0-1.116-0.346-1.557-1.699-1.762l-5.576-0.771c-3.902-0.551-5.365-1.667-5.365-5.018v-3.634c0-3.383,1.811-5.38,6.482-5.38h5.441
	c1.559,0,3.791,0.377,4.641,1.399v2.675h-10.43c-1.084,0-1.447,0.393-1.447,1.588v2.14c0,1.148,0.678,1.519,1.746,1.652l6.475,0.849
	c3.42,0.44,4.568,1.495,4.568,5.011v3.752C357,80.016,355.482,81.746,351.078,81.746"/>
<path id="path263" d="M303.697,5.474l-9.736,17.638l-9.424-17.638h-8.816c1.637,2.981,13.174,24.701,13.174,24.701v14.311h9.486
	c0-1.938,0-14.264,0-14.264s11.986-21.743,13.686-24.748H303.697L303.697,5.474z"/>
<path id="path265" d="M104.59,74.69H91.079c-13.974,0-25.649-14.267-25.649-31.898c0-17.138,11.675-31.647,25.649-31.647h13.511
	V74.69z M27.789,74.69H14.322V11.146h13.466c13.967,0,25.65,14.509,25.65,31.647C53.439,60.424,41.756,74.69,27.789,74.69
	 M0.393,85.816H118.5V0H0.393V85.816z"/>
<path id="path267" d="M201.686,7.645c-2.691-1.864-7.221-2.843-13.104-2.843c-5.75,0-9.926,0.787-13.119,2.867
	c-3.352,2.146-4.92,5.772-4.92,11.42V31.37c0,5.687,1.631,9.506,4.889,11.413c2.627,1.828,6.904,2.697,13.15,2.697
	c6.166,0,10.57-0.893,13.088-2.65c3.256-2.021,4.955-5.966,4.955-11.46V19.089C206.625,13.709,204.965,9.859,201.686,7.645
	 M197.783,30.832c0,6.917-2.406,8.51-9.201,8.51c-6.781,0-9.203-1.593-9.203-8.51V19.144c0-6.748,2.422-8.207,9.203-8.207
	c6.795,0,9.201,1.459,9.201,8.207V30.832z"/>
<path id="path269" d="M149.412,5.474h-19.545v39.023h20.918c10.299,0,14.143-4.203,14.143-15.521v-8.577
	C164.928,9.662,160.578,5.474,149.412,5.474 M156.189,29.911c0,6.835-3.65,8.562-6.701,8.562h-10.813V11.2h10.813
	c3.051,0,6.701,1.723,6.701,8.077V29.911z"/>
<polygon id="polygon271" points="221.898,5.474 213.09,5.474 213.09,44.493 238.164,44.493 238.164,37.997 221.898,37.997 "/>
<path id="path273" d="M307.637,41.096h0.732l1.133,1.86h0.715l-1.211-1.88c0.637-0.079,1.109-0.417,1.109-1.168
	c0-0.846-0.488-1.223-1.51-1.223h-1.629v4.271h0.66V41.096z M307.637,39.224h0.873c0.756,0,0.945,0.229,0.945,0.63
	c0,0.476-0.244,0.707-1.055,0.707h-0.764V39.224L307.637,39.224z M304.672,40.813c0,2.144,1.715,3.697,3.744,3.697
	c2.014,0,3.729-1.554,3.729-3.697c0-2.127-1.715-3.681-3.729-3.681C306.387,37.132,304.672,38.686,304.672,40.813 M311.438,40.813
	c0,1.806-1.322,3.099-3.021,3.099c-1.715,0-3.035-1.293-3.035-3.099c0-1.766,1.32-3.103,3.035-3.103
	C310.115,37.71,311.438,39.047,311.438,40.813"/>
<path id="path275" d="M259.746,38.818h-7.951v-0.039V11.09v-0.023h8.658c2.943,0,4.775,2.336,4.775,5.521
	c0,4.892-2.375,5.01-9.131,5.254v4.526c6.023-0.023,10.869-0.39,10.869,5.855C266.967,35.362,264.961,38.818,259.746,38.818
	 M264.418,23.848c6.922-0.63,8.416-4.027,8.416-8.892c0-4.311-1.816-6.501-3.807-7.731c-1.668-1.043-3.65-1.75-7.795-1.75h-18.238
	v39.015h18.482c5.678,0,8.039-1.112,9.146-1.867c1.881-1.259,4.311-4.035,4.311-8.483C274.934,28.896,273.117,23.654,264.418,23.848
	"/>
</svg>
