<?xml version="1.0" encoding="UTF-8" standalone="no"?>
<svg
   xmlns:dc="http://purl.org/dc/elements/1.1/"
   xmlns:cc="http://creativecommons.org/ns#"
   xmlns:rdf="http://www.w3.org/1999/02/22-rdf-syntax-ns#"
   xmlns:svg="http://www.w3.org/2000/svg"
   xmlns="http://www.w3.org/2000/svg"
   xmlns:sodipodi="http://sodipodi.sourceforge.net/DTD/sodipodi-0.dtd"
   xmlns:inkscape="http://www.inkscape.org/namespaces/inkscape"
   sodipodi:docname="DTS 2020.svg"
   inkscape:version="1.0 (4035a4fb49, 2020-05-01)"
   id="svg8"
   version="1.1"
   viewBox="0 0 344.61862 135.127"
   height="135.127mm"
   width="344.61862mm">
  <defs
     id="defs2" />
  <sodipodi:namedview
     inkscape:window-maximized="1"
     inkscape:window-y="-8"
     inkscape:window-x="-8"
     inkscape:window-height="705"
     inkscape:window-width="1366"
     fit-margin-bottom="0"
     fit-margin-right="0"
     fit-margin-left="0"
     fit-margin-top="0"
     showgrid="false"
     inkscape:document-rotation="0"
     inkscape:current-layer="layer1"
     inkscape:document-units="mm"
     inkscape:cy="276.05611"
     inkscape:cx="196.40243"
     inkscape:zoom="0.53414474"
     inkscape:pageshadow="2"
     inkscape:pageopacity="0.0"
     borderopacity="1.0"
     bordercolor="#666666"
     pagecolor="#ffffff"
     id="base" />
  <metadata
     id="metadata5">
    <rdf:RDF>
      <cc:Work
         rdf:about="">
        <dc:format>image/svg+xml</dc:format>
        <dc:type
           rdf:resource="http://purl.org/dc/dcmitype/StillImage" />
        <dc:title></dc:title>
      </cc:Work>
    </rdf:RDF>
  </metadata>
  <g
     transform="translate(88.54177,-80.698349)"
     id="layer1"
     inkscape:groupmode="layer"
     inkscape:label="Layer 1">
    <g
       transform="matrix(0.65880063,0,0,0.66141458,-548.71401,-86.308832)"
       id="XMLID_11_">
	<linearGradient
   y2="279.30109"
   x2="1168.7993"
   y1="474.64581"
   x1="730.0481"
   gradientUnits="userSpaceOnUse"
   id="XMLID_14_">
		<stop
   id="stop31"
   style="stop-color:#F4633A"
   offset="0" />

		<stop
   id="stop33"
   style="stop-color:#FFB81C"
   offset="1" />

	</linearGradient>

	<path
   d="m 1183.1,403.5 -24.6,-24.6 c -3.2,-3.2 -5.2,-7.6 -5.2,-12.5 0,-9.8 7.9,-17.7 17.7,-17.7 h 12.2 c 4,0 7.2,-3.2 7.2,-7.2 v -13.3 h -101.5 c -17.2,0 -31.1,13.9 -31.1,31.1 0,8.6 3.5,16.3 9.1,22 l 24.6,24.6 c 3.2,3.2 5.2,7.6 5.2,12.5 0,9.8 -7.9,17.7 -17.7,17.7 h -38 c -15,0 -27.1,-12.1 -27.1,-27.1 v -60.2 h 23.3 c 4,0 7.2,-3.2 7.2,-7.2 V 328.3 H 1014 V 262 l -79.5,35 v 31.3 H 896 v -75.8 h -59 c -11.3,0 -20.5,9.2 -20.5,20.5 v 55.3 H 774 c -44.4,0 -75.5,24.1 -75.5,64.2 0,35.9 36.5,64.2 75.6,64.2 H 869 c 15,0 27.1,-12.1 27.1,-27.1 v -80.7 h 38.5 c 0,0 0,41.6 0,52.5 0,29.7 18,55.4 54.6,55.4 h 172.1 c 17.2,0 31.1,-13.9 31.1,-31.1 -0.2,-8.9 -3.6,-16.6 -9.3,-22.2 z m -366.7,28 c 0,2.5 -2,4.4 -4.4,4.4 h -2.7 c -27.6,0 -37.8,-19 -38,-43.7 0.3,-25.5 10.9,-43.7 38,-43.7 0,0 7.2,0 7.2,0 v 83 z"
   class="st1"
   id="XMLID_3_"
   style="fill:url(#XMLID_14_)" />

	<g
   id="XMLID_10_">
		<path
   d="m 1213.6,447.2 c 1.5,-0.4 2.5,-1.5 2.5,-3.2 v -0.1 c 0,-0.9 -0.3,-1.7 -0.9,-2.2 -0.7,-0.7 -1.8,-1.2 -3.3,-1.2 h -4.8 v 10.7 h 2 v -3.7 h 2.2 0.1 l 2.6,3.7 h 2.4 z m -4.3,-1.4 v -3.4 h 2.7 c 1.3,0 2.1,0.6 2.1,1.7 v 0.1 c 0,1 -0.8,1.7 -2.1,1.7 h -2.7 z"
   class="st2"
   id="XMLID_6_" />

		<path
   d="m 1211.4,436 c -5.8,0 -10.3,4.7 -10.3,10.3 v 0.1 c 0,5.6 4.5,10.2 10.2,10.2 5.8,0 10.3,-4.7 10.3,-10.3 v -0.1 c 0,-5.6 -4.5,-10.2 -10.2,-10.2 z m 8.6,10.2 c 0,4.8 -3.7,8.7 -8.7,8.7 -4.9,0 -8.6,-3.9 -8.6,-8.7 v -0.1 c 0,-4.8 3.7,-8.7 8.7,-8.7 4.9,0.1 8.6,4 8.6,8.8 z"
   class="st2"
   id="XMLID_9_" />

	</g>

</g>
  </g>
  <style
     type="text/css"
     id="style28">
	.st0{fill:#FFFFFF;}
	.st1{fill:url(#XMLID_14_);}
	.st2{fill:#F4633A;}
	.st3{fill:#FCB813;}
	.st4{fill:#F16522;}
	.st5{fill:#2D2926;}
	.st6{fill:url(#SVGID_1_);}
	.st7{fill:url(#SVGID_2_);}
	.st8{fill:url(#SVGID_3_);}
	.st9{fill:url(#SVGID_4_);}
	.st10{fill:#171112;}
	.st11{fill:#929497;}
	.st12{fill:#231F20;}
	.st13{fill:url(#SVGID_5_);}
	.st14{clip-path:url(#SVGID_7_);fill:url(#SVGID_8_);}
</style>
</svg>
