<?xml version="1.0" encoding="UTF-8"?>
<!-- Created with Inkscape (http://www.inkscape.org/) -->
<svg id="svg824" width="635" height="472.81598" version="1.1" viewBox="0 0 635 472.81598" xml:space="preserve" xmlns="http://www.w3.org/2000/svg"><defs id="defs828"><clipPath id="clipPath838"><path id="path836" d="m0 500h500v-500h-500z"/></clipPath><clipPath id="clipPath854"><path id="path852" d="m256.657 426.307h232.468v-326.475h-232.468z"/></clipPath></defs><g id="g830" transform="matrix(1.3333333,0,0,-1.3333333,-17.167066,568.40932)"><g id="g832"><g id="g834" clip-path="url(#clipPath838)"><g id="g840" transform="translate(53.4136,423.6216)"><path id="path842" d="m0 0h395.172c20.398 0 36.933-16.546 36.933-36.957v-275.328c0-20.41-16.535-36.956-36.933-36.956h-395.172c-20.397 0-36.932 16.546-36.932 36.956v275.328c0 20.411 16.535 36.957 36.932 36.957" fill="#ffffff" fill-rule="evenodd"/></g><g id="g844" transform="translate(321.7803,312.814)"><path id="path846" d="m0 0c11.474 0 17.732-8.729 17.732-19.642 0-9.568-7.003-17.962-17.584-17.962-9.984 0-16.391 8.058-16.391 18.13 0 10.745 6.706 19.474 16.243 19.474m91.337 28.707h0.299v-37.772h-26.526zm4.299-122.553c9.438 0 19.546-9.698 19.849-26.719h-11.325c-0.669 7.125-3.957 10.886-8.767 10.886-7.307 0-10.108-10.392-10.108-20.981s2.801-20.979 10.108-20.979c5.358 0 8.341 4.848 8.767 13.062h11.325c-0.67-18.307-8.828-28.896-19.849-28.896-13.212 0-21.676 16.329-21.676 36.813 0 20.486 8.464 36.814 21.676 36.814m-50.108-1.485 8.525-52.547h0.122l8.524 52.547h11.813l-14.066-70.658h-13.03l-13.699 70.658zm-22.22-44.334-4.811 24.741h-0.121l-4.933-24.741zm0.913 44.334 16.257-70.658h-11.812l-2.68 12.667h-15.161l-2.74-12.667h-11.629l16.257 70.658zm-24.232 1.485-16.379-73.627h-9.498l16.379 73.627zm-40.486-20.286h-0.122l-10.717-22.267h10.839zm10.046 17.12v-39.387h5.541v-14.251h-5.541v-15.339h-10.351v15.339h-18.571v15.735l18.997 37.903zm-31.294-49.184h-18.937v14.25h18.937zm-42.861 52.35c9.011 0 18.692-7.719 19.666-25.531h-11.325c-0.426 6.036-3.958 9.698-8.585 9.698-7.307 0-10.108-10.392-10.108-20.981s2.801-20.979 10.108-20.979c5.601 0 9.316 4.255 9.985 10.687h-7.915v13.658h18.266v-38.695h-7.306l-0.67 7.719c-2.923-6.828-8.22-9.203-12.116-9.203-13.213 0-21.677 16.329-21.677 36.813 0 20.486 8.464 36.814 21.677 36.814m-24.657-16.23h-23.32v-12.37h21.311v-14.25h-21.311v-13.459h23.929v-15.834h-35.254v70.658h34.645zm-62.589 0v-18.109h7.611c3.592 0 6.089 2.375 6.089 8.808 0 6.729-2.619 9.301-6.089 9.301zm25.025-8.015c0-17.517-6.15-24.345-15.709-24.345h-9.316v-23.553h-11.325v70.658h20.641c8.098 0 15.709-6.036 15.709-22.76m-66.059-24.345h0.122l7.489 47.105h16.684v-70.658h-10.656v53.638h-0.122l-9.133-53.638h-8.646l-9.133 53.638h-0.122v-53.638h-10.656v70.658h16.684zm364.606 58.923h-400v-97.565h400zm-1.937 74.448h-13.56v66.814h-24.289l-46.494-64.296v-26.692h45.451v-26.021h25.332v26.021h13.56zm-125.909 47.34c2.235 0 4.918-0.336 7.302-1.846 2.385-1.847 4.173-4.365 5.216-9.065h23.693c-3.129 21.32-17.733 31.896-36.211 31.896-31.442 0-45.45-27.867-45.45-60.771 0-30.05 10.879-59.26 41.427-59.26 22.65 0 41.575 15.445 41.575 43.144 0 21.32-14.604 38.611-33.678 38.611-9.983 0-19.073-2.854-24.289-12.422h-0.298c0.446 13.262 6.259 29.713 20.713 29.713m-50.806-73.361h-49.324c6.855 7.386 10.73 10.408 18.777 15.78 15.199 10.744 29.504 18.802 29.504 41.465 0 25.014-18.329 37.101-38.893 37.101-25.779 0-42.469-19.642-40.83-48.684h23.694c0 12.758 3.874 23.671 17.285 23.671 8.196 0 13.412-5.372 13.412-14.606 0-7.89-5.663-13.598-13.561-19.474-8.195-5.875-18.179-11.75-27.121-20.48-10.282-10.072-16.093-24.006-16.242-38.947h83.299zm-91.789 7.051h-27.717v-31.225h27.717zm-40.672 88.638h-27.717v-43.648h-36.509v43.648h-27.717v-119.863h27.717v49.355h36.509v-49.355h27.717zm309.238-301.722h-401.25c-20.711 0-37.5 16.8-37.5 37.525v279.562c0 20.724 16.789 37.525 37.5 37.525h401.25c20.711 0 37.5-16.801 37.5-37.525v-279.562c0-20.725-16.789-37.525-37.5-37.525" fill="#231f20" fill-rule="evenodd"/></g><g id="g848"><g id="g862"><g id="g860" clip-path="url(#clipPath854)" opacity=".25"><g id="g858" transform="translate(451.625,426.3071)"><path id="path856" d="m0 0c20.711 0 37.5-16.801 37.5-37.525v-279.562c0-3.242-0.411-6.387-1.184-9.388l-231.284 326.475z" fill="#ffffff" fill-rule="evenodd"/></g></g></g></g></g></g></g></svg>
